<svg width="35" height="27" viewBox="0 0 35 27" fill="none" xmlns="http://www.w3.org/2000/svg">
<g clip-path="url(#clip0_4577_3848)">
<path d="M3.8548 8.62372C2.74843 8.62372 1.82762 8.28761 1.09237 7.61538C0.364123 6.93615 0 6.06436 0 5C0 3.92864 0.364123 3.05684 1.09237 2.38462C1.82061 1.71239 2.74142 1.37628 3.8548 1.37628C4.69508 1.37628 5.37081 1.57234 5.88198 1.96448C6.40016 2.35661 6.78529 2.83977 7.03737 3.41397L5.20976 4.26475C5.11873 3.98466 4.94717 3.74658 4.69508 3.55051C4.443 3.34744 4.1629 3.24591 3.8548 3.24591C3.35063 3.24591 2.94099 3.41397 2.62589 3.75008C2.31078 4.08619 2.15323 4.50283 2.15323 5C2.15323 5.49717 2.31078 5.91381 2.62589 6.24992C2.94099 6.58604 3.35063 6.75409 3.8548 6.75409C4.1629 6.75409 4.443 6.65606 4.69508 6.45999C4.94717 6.25692 5.11873 6.01534 5.20976 5.73525L7.03737 6.57553C6.92534 6.83462 6.78529 7.0762 6.61723 7.30028C6.44918 7.51735 6.2391 7.73092 5.98702 7.94099C5.73493 8.15106 5.42333 8.31912 5.0522 8.44516C4.68808 8.5642 4.28895 8.62372 3.8548 8.62372Z" fill="#84D52C"/>
<path d="M3.8548 8.62372C2.74843 8.62372 1.82762 8.28761 1.09237 7.61538C0.364123 6.93615 0 6.06436 0 5C0 3.92864 0.364123 3.05684 1.09237 2.38462C1.82061 1.71239 2.74142 1.37628 3.8548 1.37628C4.69508 1.37628 5.37081 1.57234 5.88198 1.96448C6.40016 2.35661 6.78529 2.83977 7.03737 3.41397L5.20976 4.26475C5.11873 3.98466 4.94717 3.74658 4.69508 3.55051C4.443 3.34744 4.1629 3.24591 3.8548 3.24591C3.35063 3.24591 2.94099 3.41397 2.62589 3.75008C2.31078 4.08619 2.15323 4.50283 2.15323 5C2.15323 5.49717 2.31078 5.91381 2.62589 6.24992C2.94099 6.58604 3.35063 6.75409 3.8548 6.75409C4.1629 6.75409 4.443 6.65606 4.69508 6.45999C4.94717 6.25692 5.11873 6.01534 5.20976 5.73525L7.03737 6.57553C6.92534 6.83462 6.78529 7.0762 6.61723 7.30028C6.44918 7.51735 6.2391 7.73092 5.98702 7.94099C5.73493 8.15106 5.42333 8.31912 5.0522 8.44516C4.68808 8.5642 4.28895 8.62372 3.8548 8.62372Z" fill="url(#paint0_linear_4577_3848)" fill-opacity="0.2"/>
<path d="M12.1029 8.49768H7.7019V1.49182H11.9558C12.628 1.49182 13.1427 1.67388 13.4998 2.038C13.857 2.40212 14.0355 2.81526 14.0355 3.27742C14.0355 3.70456 13.9235 4.06168 13.6994 4.34878C13.4753 4.62888 13.1882 4.80744 12.8381 4.88446C13.2233 4.94048 13.5419 5.12954 13.7939 5.45165C14.046 5.76676 14.1721 6.14839 14.1721 6.59654C14.1721 7.12172 13.9935 7.56987 13.6364 7.94099C13.2793 8.31212 12.7681 8.49768 12.1029 8.49768ZM11.4622 4.07569C11.5742 4.07569 11.6722 4.03718 11.7563 3.96015C11.8403 3.87612 11.8823 3.77459 11.8823 3.65555C11.8823 3.53651 11.8403 3.44197 11.7563 3.37195C11.6722 3.29493 11.5742 3.25641 11.4622 3.25641H9.82361V4.07569H11.4622ZM11.5252 6.73309C11.6792 6.73309 11.7983 6.69457 11.8823 6.61755C11.9733 6.53352 12.0188 6.42498 12.0188 6.29194C12.0188 6.16589 11.9733 6.06086 11.8823 5.97683C11.7913 5.8858 11.6722 5.84028 11.5252 5.84028H9.82361V6.73309H11.5252Z" fill="#84D52C"/>
<path d="M12.1029 8.49768H7.7019V1.49182H11.9558C12.628 1.49182 13.1427 1.67388 13.4998 2.038C13.857 2.40212 14.0355 2.81526 14.0355 3.27742C14.0355 3.70456 13.9235 4.06168 13.6994 4.34878C13.4753 4.62888 13.1882 4.80744 12.8381 4.88446C13.2233 4.94048 13.5419 5.12954 13.7939 5.45165C14.046 5.76676 14.1721 6.14839 14.1721 6.59654C14.1721 7.12172 13.9935 7.56987 13.6364 7.94099C13.2793 8.31212 12.7681 8.49768 12.1029 8.49768ZM11.4622 4.07569C11.5742 4.07569 11.6722 4.03718 11.7563 3.96015C11.8403 3.87612 11.8823 3.77459 11.8823 3.65555C11.8823 3.53651 11.8403 3.44197 11.7563 3.37195C11.6722 3.29493 11.5742 3.25641 11.4622 3.25641H9.82361V4.07569H11.4622ZM11.5252 6.73309C11.6792 6.73309 11.7983 6.69457 11.8823 6.61755C11.9733 6.53352 12.0188 6.42498 12.0188 6.29194C12.0188 6.16589 11.9733 6.06086 11.8823 5.97683C11.7913 5.8858 11.6722 5.84028 11.5252 5.84028H9.82361V6.73309H11.5252Z" fill="url(#paint1_linear_4577_3848)" fill-opacity="0.2"/>
<path d="M18.1662 8.49768H15.0256V1.49182H18.1557C19.2901 1.49182 20.2144 1.80342 20.9286 2.42663C21.6429 3.04284 22 3.89713 22 4.9895C22 6.08187 21.6429 6.93966 20.9286 7.56287C20.2144 8.18608 19.2936 8.49768 18.1662 8.49768ZM18.1557 6.64906C18.6669 6.64906 19.0765 6.488 19.3846 6.16589C19.6927 5.84379 19.8468 5.45165 19.8468 4.9895C19.8468 4.49233 19.7032 4.09319 19.4161 3.79209C19.129 3.49099 18.7124 3.34044 18.1662 3.34044H17.1474V6.64906H18.1557Z" fill="#84D52C"/>
<path d="M18.1662 8.49768H15.0256V1.49182H18.1557C19.2901 1.49182 20.2144 1.80342 20.9286 2.42663C21.6429 3.04284 22 3.89713 22 4.9895C22 6.08187 21.6429 6.93966 20.9286 7.56287C20.2144 8.18608 19.2936 8.49768 18.1662 8.49768ZM18.1557 6.64906C18.6669 6.64906 19.0765 6.488 19.3846 6.16589C19.6927 5.84379 19.8468 5.45165 19.8468 4.9895C19.8468 4.49233 19.7032 4.09319 19.4161 3.79209C19.129 3.49099 18.7124 3.34044 18.1662 3.34044H17.1474V6.64906H18.1557Z" fill="url(#paint2_linear_4577_3848)" fill-opacity="0.2"/>
<g filter="url(#filter0_d_4577_3848)">
<path d="M19.75 7.8652L22.1461 10.4354L21.3437 11.7462L25.2913 14.8977M25.4197 12.899L25.2723 15.1919M23.2499 15.0733L25.7089 14.7631" stroke="#FF6D59" stroke-width="1.06906"/>
</g>
</g>
<defs>
<filter id="filter0_d_4577_3848" x="10.359" y="0.500704" width="24.5941" height="26.1029" filterUnits="userSpaceOnUse" color-interpolation-filters="sRGB">
<feFlood flood-opacity="0" result="BackgroundImageFix"/>
<feColorMatrix in="SourceAlpha" type="matrix" values="0 0 0 0 0 0 0 0 0 0 0 0 0 0 0 0 0 0 127 0" result="hardAlpha"/>
<feOffset dy="2"/>
<feGaussianBlur stdDeviation="4.5"/>
<feComposite in2="hardAlpha" operator="out"/>
<feColorMatrix type="matrix" values="0 0 0 0 0.829167 0 0 0 0 0.148559 0 0 0 0 0.148559 0 0 0 1 0"/>
<feBlend mode="normal" in2="BackgroundImageFix" result="effect1_dropShadow_4577_3848"/>
<feBlend mode="normal" in="SourceGraphic" in2="effect1_dropShadow_4577_3848" result="shape"/>
</filter>
<linearGradient id="paint0_linear_4577_3848" x1="22" y1="1.37628" x2="0.746704" y2="5.25944" gradientUnits="userSpaceOnUse">
<stop stop-color="#6BAB2B"/>
<stop offset="1" stop-color="#84D52C" stop-opacity="0"/>
</linearGradient>
<linearGradient id="paint1_linear_4577_3848" x1="22" y1="1.37628" x2="0.746718" y2="5.25944" gradientUnits="userSpaceOnUse">
<stop stop-color="#6BAB2B"/>
<stop offset="1" stop-color="#84D52C" stop-opacity="0"/>
</linearGradient>
<linearGradient id="paint2_linear_4577_3848" x1="22" y1="1.37628" x2="0.746677" y2="5.25944" gradientUnits="userSpaceOnUse">
<stop stop-color="#6BAB2B"/>
<stop offset="1" stop-color="#84D52C" stop-opacity="0"/>
</linearGradient>
<clipPath id="clip0_4577_3848">
<rect width="35" height="27" fill="white"/>
</clipPath>
</defs>
</svg>
