<svg width="60" height="58" viewBox="0 0 60 58" fill="none" xmlns="http://www.w3.org/2000/svg">
<path d="M12.8548 15.6237C11.7484 15.6237 10.8276 15.2876 10.0924 14.6154C9.36412 13.9362 9 13.0644 9 12C9 10.9286 9.36412 10.0568 10.0924 9.38461C10.8206 8.71239 11.7414 8.37627 12.8548 8.37627C13.6951 8.37627 14.3708 8.57234 14.882 8.96447C15.4002 9.3566 15.7853 9.83977 16.0374 10.414L14.2098 11.2647C14.1187 10.9847 13.9472 10.7466 13.6951 10.5505C13.443 10.3474 13.1629 10.2459 12.8548 10.2459C12.3506 10.2459 11.941 10.414 11.6259 10.7501C11.3108 11.0862 11.1532 11.5028 11.1532 12C11.1532 12.4972 11.3108 12.9138 11.6259 13.2499C11.941 13.586 12.3506 13.7541 12.8548 13.7541C13.1629 13.7541 13.443 13.6561 13.6951 13.46C13.9472 13.2569 14.1187 13.0153 14.2098 12.7352L16.0374 13.5755C15.9253 13.8346 15.7853 14.0762 15.6172 14.3003C15.4492 14.5173 15.2391 14.7309 14.987 14.941C14.7349 15.1511 14.4233 15.3191 14.0522 15.4452C13.6881 15.5642 13.2889 15.6237 12.8548 15.6237Z" fill="#84D52C"/>
<path d="M12.8548 15.6237C11.7484 15.6237 10.8276 15.2876 10.0924 14.6154C9.36412 13.9362 9 13.0644 9 12C9 10.9286 9.36412 10.0568 10.0924 9.38461C10.8206 8.71239 11.7414 8.37627 12.8548 8.37627C13.6951 8.37627 14.3708 8.57234 14.882 8.96447C15.4002 9.3566 15.7853 9.83977 16.0374 10.414L14.2098 11.2647C14.1187 10.9847 13.9472 10.7466 13.6951 10.5505C13.443 10.3474 13.1629 10.2459 12.8548 10.2459C12.3506 10.2459 11.941 10.414 11.6259 10.7501C11.3108 11.0862 11.1532 11.5028 11.1532 12C11.1532 12.4972 11.3108 12.9138 11.6259 13.2499C11.941 13.586 12.3506 13.7541 12.8548 13.7541C13.1629 13.7541 13.443 13.6561 13.6951 13.46C13.9472 13.2569 14.1187 13.0153 14.2098 12.7352L16.0374 13.5755C15.9253 13.8346 15.7853 14.0762 15.6172 14.3003C15.4492 14.5173 15.2391 14.7309 14.987 14.941C14.7349 15.1511 14.4233 15.3191 14.0522 15.4452C13.6881 15.5642 13.2889 15.6237 12.8548 15.6237Z" fill="url(#paint0_linear_4578_3867)" fill-opacity="0.2"/>
<path d="M21.1029 15.4977H16.7019V8.49181H20.9558C21.628 8.49181 22.1427 8.67387 22.4998 9.038C22.857 9.40212 23.0355 9.81526 23.0355 10.2774C23.0355 10.7046 22.9235 11.0617 22.6994 11.3488C22.4753 11.6289 22.1882 11.8074 21.8381 11.8845C22.2233 11.9405 22.5419 12.1295 22.7939 12.4516C23.046 12.7668 23.1721 13.1484 23.1721 13.5965C23.1721 14.1217 22.9935 14.5699 22.6364 14.941C22.2793 15.3121 21.7681 15.4977 21.1029 15.4977ZM20.4622 11.0757C20.5742 11.0757 20.6722 11.0372 20.7563 10.9601C20.8403 10.8761 20.8823 10.7746 20.8823 10.6555C20.8823 10.5365 20.8403 10.442 20.7563 10.3719C20.6722 10.2949 20.5742 10.2564 20.4622 10.2564H18.8236V11.0757H20.4622ZM20.5252 13.7331C20.6792 13.7331 20.7983 13.6946 20.8823 13.6175C20.9733 13.5335 21.0188 13.425 21.0188 13.2919C21.0188 13.1659 20.9733 13.0609 20.8823 12.9768C20.7913 12.8858 20.6722 12.8403 20.5252 12.8403H18.8236V13.7331H20.5252Z" fill="#84D52C"/>
<path d="M21.1029 15.4977H16.7019V8.49181H20.9558C21.628 8.49181 22.1427 8.67387 22.4998 9.038C22.857 9.40212 23.0355 9.81526 23.0355 10.2774C23.0355 10.7046 22.9235 11.0617 22.6994 11.3488C22.4753 11.6289 22.1882 11.8074 21.8381 11.8845C22.2233 11.9405 22.5419 12.1295 22.7939 12.4516C23.046 12.7668 23.1721 13.1484 23.1721 13.5965C23.1721 14.1217 22.9935 14.5699 22.6364 14.941C22.2793 15.3121 21.7681 15.4977 21.1029 15.4977ZM20.4622 11.0757C20.5742 11.0757 20.6722 11.0372 20.7563 10.9601C20.8403 10.8761 20.8823 10.7746 20.8823 10.6555C20.8823 10.5365 20.8403 10.442 20.7563 10.3719C20.6722 10.2949 20.5742 10.2564 20.4622 10.2564H18.8236V11.0757H20.4622ZM20.5252 13.7331C20.6792 13.7331 20.7983 13.6946 20.8823 13.6175C20.9733 13.5335 21.0188 13.425 21.0188 13.2919C21.0188 13.1659 20.9733 13.0609 20.8823 12.9768C20.7913 12.8858 20.6722 12.8403 20.5252 12.8403H18.8236V13.7331H20.5252Z" fill="url(#paint1_linear_4578_3867)" fill-opacity="0.2"/>
<path d="M27.1662 15.4977H24.0256V8.49181H27.1557C28.2901 8.49181 29.2144 8.80342 29.9286 9.42663C30.6429 10.0428 31 10.8971 31 11.9895C31 13.0819 30.6429 13.9397 29.9286 14.5629C29.2144 15.1861 28.2936 15.4977 27.1662 15.4977ZM27.1557 13.6491C27.6669 13.6491 28.0765 13.488 28.3846 13.1659C28.6927 12.8438 28.8468 12.4516 28.8468 11.9895C28.8468 11.4923 28.7032 11.0932 28.4161 10.7921C28.129 10.491 27.7124 10.3404 27.1662 10.3404H26.1474V13.6491H27.1557Z" fill="#84D52C"/>
<path d="M27.1662 15.4977H24.0256V8.49181H27.1557C28.2901 8.49181 29.2144 8.80342 29.9286 9.42663C30.6429 10.0428 31 10.8971 31 11.9895C31 13.0819 30.6429 13.9397 29.9286 14.5629C29.2144 15.1861 28.2936 15.4977 27.1662 15.4977ZM27.1557 13.6491C27.6669 13.6491 28.0765 13.488 28.3846 13.1659C28.6927 12.8438 28.8468 12.4516 28.8468 11.9895C28.8468 11.4923 28.7032 11.0932 28.4161 10.7921C28.129 10.491 27.7124 10.3404 27.1662 10.3404H26.1474V13.6491H27.1557Z" fill="url(#paint2_linear_4578_3867)" fill-opacity="0.2"/>
<g filter="url(#filter0_di_4578_3867)">
<path d="M26.0391 21.6952L28.8009 19.1756L30.2502 19.9731L33.6163 15.845M31.4284 15.7555L33.9383 15.8582M33.8494 17.9412L33.4606 15.4183" stroke="#7ACB22" stroke-width="1.06906" shape-rendering="crispEdges"/>
</g>
<defs>
<filter id="filter0_di_4578_3867" x="0.678406" y="0.22184" width="58.6998" height="56.8674" filterUnits="userSpaceOnUse" color-interpolation-filters="sRGB">
<feFlood flood-opacity="0" result="BackgroundImageFix"/>
<feColorMatrix in="SourceAlpha" type="matrix" values="0 0 0 0 0 0 0 0 0 0 0 0 0 0 0 0 0 0 127 0" result="hardAlpha"/>
<feOffset dy="10"/>
<feGaussianBlur stdDeviation="12.5"/>
<feComposite in2="hardAlpha" operator="out"/>
<feColorMatrix type="matrix" values="0 0 0 0 0.0588235 0 0 0 0 0.0588235 0 0 0 0 0.0901961 0 0 0 0.35 0"/>
<feBlend mode="normal" in2="BackgroundImageFix" result="effect1_dropShadow_4578_3867"/>
<feBlend mode="normal" in="SourceGraphic" in2="effect1_dropShadow_4578_3867" result="shape"/>
<feColorMatrix in="SourceAlpha" type="matrix" values="0 0 0 0 0 0 0 0 0 0 0 0 0 0 0 0 0 0 127 0" result="hardAlpha"/>
<feOffset dx="5" dy="10"/>
<feGaussianBlur stdDeviation="7.5"/>
<feComposite in2="hardAlpha" operator="arithmetic" k2="-1" k3="1"/>
<feColorMatrix type="matrix" values="0 0 0 0 1 0 0 0 0 1 0 0 0 0 1 0 0 0 0.5 0"/>
<feBlend mode="normal" in2="shape" result="effect2_innerShadow_4578_3867"/>
</filter>
<linearGradient id="paint0_linear_4578_3867" x1="31" y1="8.37628" x2="9.7467" y2="12.2594" gradientUnits="userSpaceOnUse">
<stop stop-color="#6BAB2B"/>
<stop offset="1" stop-color="#84D52C" stop-opacity="0"/>
</linearGradient>
<linearGradient id="paint1_linear_4578_3867" x1="31" y1="8.37628" x2="9.7467" y2="12.2594" gradientUnits="userSpaceOnUse">
<stop stop-color="#6BAB2B"/>
<stop offset="1" stop-color="#84D52C" stop-opacity="0"/>
</linearGradient>
<linearGradient id="paint2_linear_4578_3867" x1="31" y1="8.37628" x2="9.7467" y2="12.2594" gradientUnits="userSpaceOnUse">
<stop stop-color="#6BAB2B"/>
<stop offset="1" stop-color="#84D52C" stop-opacity="0"/>
</linearGradient>
</defs>
</svg>
