<svg width="36" height="27" viewBox="0 0 36 27" fill="none" xmlns="http://www.w3.org/2000/svg">
<path d="M4.26689 9.02576H2.00465V3.08988H0V0.962153H6.26034V3.08988H4.26689V9.02576Z" fill="#84D52C"/>
<path d="M4.26689 9.02576H2.00465V3.08988H0V0.962153H6.26034V3.08988H4.26689V9.02576Z" fill="url(#paint0_linear_4578_3870)" fill-opacity="0.2"/>
<path d="M14.2647 9.02576H12.0025V5.94297H9.32585V9.02576H7.06362V0.962153H9.32585V3.81524H12.0025V0.962153H14.2647V9.02576Z" fill="#84D52C"/>
<path d="M14.2647 9.02576H12.0025V5.94297H9.32585V9.02576H7.06362V0.962153H9.32585V3.81524H12.0025V0.962153H14.2647V9.02576Z" fill="url(#paint1_linear_4578_3870)" fill-opacity="0.2"/>
<path d="M19.1809 9.17083C18.0012 9.17083 17.0194 8.78397 16.2355 8.01025C15.459 7.22847 15.0708 6.22505 15.0708 5C15.0708 3.76688 15.459 2.76347 16.2355 1.98975C17.012 1.21603 17.9938 0.82917 19.1809 0.82917C20.0768 0.82917 20.7973 1.05484 21.3423 1.50617C21.8948 1.95751 22.3054 2.51362 22.5742 3.17451L20.6256 4.15374C20.5285 3.83136 20.3456 3.55734 20.0768 3.33167C19.808 3.09794 19.5094 2.98108 19.1809 2.98108C18.6433 2.98108 18.2065 3.17451 17.8706 3.56137C17.5346 3.94822 17.3666 4.42777 17.3666 5C17.3666 5.57223 17.5346 6.05177 17.8706 6.43863C18.2065 6.82549 18.6433 7.01892 19.1809 7.01892C19.5094 7.01892 19.808 6.90609 20.0768 6.68042C20.3456 6.44669 20.5285 6.16864 20.6256 5.84625L22.5742 6.8134C22.4548 7.11161 22.3054 7.38966 22.1263 7.64757C21.9471 7.89742 21.7231 8.14323 21.4543 8.38502C21.1855 8.62681 20.8533 8.82024 20.4576 8.96531C20.0693 9.10232 19.6438 9.17083 19.1809 9.17083Z" fill="#84D52C"/>
<path d="M19.1809 9.17083C18.0012 9.17083 17.0194 8.78397 16.2355 8.01025C15.459 7.22847 15.0708 6.22505 15.0708 5C15.0708 3.76688 15.459 2.76347 16.2355 1.98975C17.012 1.21603 17.9938 0.82917 19.1809 0.82917C20.0768 0.82917 20.7973 1.05484 21.3423 1.50617C21.8948 1.95751 22.3054 2.51362 22.5742 3.17451L20.6256 4.15374C20.5285 3.83136 20.3456 3.55734 20.0768 3.33167C19.808 3.09794 19.5094 2.98108 19.1809 2.98108C18.6433 2.98108 18.2065 3.17451 17.8706 3.56137C17.5346 3.94822 17.3666 4.42777 17.3666 5C17.3666 5.57223 17.5346 6.05177 17.8706 6.43863C18.2065 6.82549 18.6433 7.01892 19.1809 7.01892C19.5094 7.01892 19.808 6.90609 20.0768 6.68042C20.3456 6.44669 20.5285 6.16864 20.6256 5.84625L22.5742 6.8134C22.4548 7.11161 22.3054 7.38966 22.1263 7.64757C21.9471 7.89742 21.7231 8.14323 21.4543 8.38502C21.1855 8.62681 20.8533 8.82024 20.4576 8.96531C20.0693 9.10232 19.6438 9.17083 19.1809 9.17083Z" fill="url(#paint2_linear_4578_3870)" fill-opacity="0.2"/>
<g filter="url(#filter0_d_4578_3870)">
<path d="M19.8164 7.86519L22.2204 10.4354L21.4154 11.7462L25.3761 14.8977M25.505 12.8989L25.3571 15.1919M23.3279 15.0733L25.7951 14.763" stroke="#FF6D59" stroke-width="1.06906" shape-rendering="crispEdges"/>
</g>
<defs>
<filter id="filter0_d_4578_3870" x="10.4042" y="0.511772" width="24.6465" height="26.079" filterUnits="userSpaceOnUse" color-interpolation-filters="sRGB">
<feFlood flood-opacity="0" result="BackgroundImageFix"/>
<feColorMatrix in="SourceAlpha" type="matrix" values="0 0 0 0 0 0 0 0 0 0 0 0 0 0 0 0 0 0 127 0" result="hardAlpha"/>
<feOffset dy="2"/>
<feGaussianBlur stdDeviation="4.5"/>
<feComposite in2="hardAlpha" operator="out"/>
<feColorMatrix type="matrix" values="0 0 0 0 0.829167 0 0 0 0 0.148559 0 0 0 0 0.148559 0 0 0 1 0"/>
<feBlend mode="normal" in2="BackgroundImageFix" result="effect1_dropShadow_4578_3870"/>
<feBlend mode="normal" in="SourceGraphic" in2="effect1_dropShadow_4578_3870" result="shape"/>
</filter>
<linearGradient id="paint0_linear_4578_3870" x1="22.5742" y1="0.829171" x2="0.620651" y2="4.40509" gradientUnits="userSpaceOnUse">
<stop stop-color="#6BAB2B"/>
<stop offset="1" stop-color="#84D52C" stop-opacity="0"/>
</linearGradient>
<linearGradient id="paint1_linear_4578_3870" x1="22.5742" y1="0.829171" x2="0.620651" y2="4.40509" gradientUnits="userSpaceOnUse">
<stop stop-color="#6BAB2B"/>
<stop offset="1" stop-color="#84D52C" stop-opacity="0"/>
</linearGradient>
<linearGradient id="paint2_linear_4578_3870" x1="22.5742" y1="0.829171" x2="0.620651" y2="4.40509" gradientUnits="userSpaceOnUse">
<stop stop-color="#6BAB2B"/>
<stop offset="1" stop-color="#84D52C" stop-opacity="0"/>
</linearGradient>
</defs>
</svg>
