<svg width="60" height="58" viewBox="0 0 60 58" fill="none" xmlns="http://www.w3.org/2000/svg">
<path d="M13.2669 16.0258H11.0047V10.0899H9V7.96216H15.2603V10.0899H13.2669V16.0258Z" fill="#84D52C"/>
<path d="M13.2669 16.0258H11.0047V10.0899H9V7.96216H15.2603V10.0899H13.2669V16.0258Z" fill="url(#paint0_linear_4578_3869)" fill-opacity="0.2"/>
<path d="M23.2647 16.0258H21.0025V12.943H18.3259V16.0258H16.0636V7.96216H18.3259V10.8152H21.0025V7.96216H23.2647V16.0258Z" fill="#84D52C"/>
<path d="M23.2647 16.0258H21.0025V12.943H18.3259V16.0258H16.0636V7.96216H18.3259V10.8152H21.0025V7.96216H23.2647V16.0258Z" fill="url(#paint1_linear_4578_3869)" fill-opacity="0.2"/>
<path d="M28.1809 16.1708C27.0012 16.1708 26.0194 15.784 25.2355 15.0103C24.459 14.2285 24.0708 13.2251 24.0708 12C24.0708 10.7669 24.459 9.76348 25.2355 8.98976C26.012 8.21604 26.9938 7.82918 28.1809 7.82918C29.0768 7.82918 29.7973 8.05485 30.3423 8.50618C30.8948 8.95752 31.3054 9.51363 31.5742 10.1745L29.6256 11.1538C29.5285 10.8314 29.3456 10.5573 29.0768 10.3317C28.808 10.0979 28.5094 9.98108 28.1809 9.98108C27.6433 9.98108 27.2065 10.1745 26.8706 10.5614C26.5346 10.9482 26.3666 11.4278 26.3666 12C26.3666 12.5722 26.5346 13.0518 26.8706 13.4386C27.2065 13.8255 27.6433 14.0189 28.1809 14.0189C28.5094 14.0189 28.808 13.9061 29.0768 13.6804C29.3456 13.4467 29.5285 13.1686 29.6256 12.8463L31.5742 13.8134C31.4548 14.1116 31.3054 14.3897 31.1263 14.6476C30.9471 14.8974 30.7231 15.1432 30.4543 15.385C30.1855 15.6268 29.8533 15.8202 29.4576 15.9653C29.0693 16.1023 28.6438 16.1708 28.1809 16.1708Z" fill="#84D52C"/>
<path d="M28.1809 16.1708C27.0012 16.1708 26.0194 15.784 25.2355 15.0103C24.459 14.2285 24.0708 13.2251 24.0708 12C24.0708 10.7669 24.459 9.76348 25.2355 8.98976C26.012 8.21604 26.9938 7.82918 28.1809 7.82918C29.0768 7.82918 29.7973 8.05485 30.3423 8.50618C30.8948 8.95752 31.3054 9.51363 31.5742 10.1745L29.6256 11.1538C29.5285 10.8314 29.3456 10.5573 29.0768 10.3317C28.808 10.0979 28.5094 9.98108 28.1809 9.98108C27.6433 9.98108 27.2065 10.1745 26.8706 10.5614C26.5346 10.9482 26.3666 11.4278 26.3666 12C26.3666 12.5722 26.5346 13.0518 26.8706 13.4386C27.2065 13.8255 27.6433 14.0189 28.1809 14.0189C28.5094 14.0189 28.808 13.9061 29.0768 13.6804C29.3456 13.4467 29.5285 13.1686 29.6256 12.8463L31.5742 13.8134C31.4548 14.1116 31.3054 14.3897 31.1263 14.6476C30.9471 14.8974 30.7231 15.1432 30.4543 15.385C30.1855 15.6268 29.8533 15.8202 29.4576 15.9653C29.0693 16.1023 28.6438 16.1708 28.1809 16.1708Z" fill="url(#paint2_linear_4578_3869)" fill-opacity="0.2"/>
<g filter="url(#filter0_di_4578_3869)">
<path d="M25.9961 21.6952L28.7513 19.1756L30.1971 19.9731L33.5551 15.845M31.3725 15.7555L33.8764 15.8582M33.7877 17.9412L33.3998 15.4183" stroke="#7ACB22" stroke-width="1.06906" shape-rendering="crispEdges"/>
</g>
<defs>
<filter id="filter0_di_4578_3869" x="0.635376" y="0.221375" width="58.6806" height="56.8683" filterUnits="userSpaceOnUse" color-interpolation-filters="sRGB">
<feFlood flood-opacity="0" result="BackgroundImageFix"/>
<feColorMatrix in="SourceAlpha" type="matrix" values="0 0 0 0 0 0 0 0 0 0 0 0 0 0 0 0 0 0 127 0" result="hardAlpha"/>
<feOffset dy="10"/>
<feGaussianBlur stdDeviation="12.5"/>
<feComposite in2="hardAlpha" operator="out"/>
<feColorMatrix type="matrix" values="0 0 0 0 0.0588235 0 0 0 0 0.0588235 0 0 0 0 0.0901961 0 0 0 0.35 0"/>
<feBlend mode="normal" in2="BackgroundImageFix" result="effect1_dropShadow_4578_3869"/>
<feBlend mode="normal" in="SourceGraphic" in2="effect1_dropShadow_4578_3869" result="shape"/>
<feColorMatrix in="SourceAlpha" type="matrix" values="0 0 0 0 0 0 0 0 0 0 0 0 0 0 0 0 0 0 127 0" result="hardAlpha"/>
<feOffset dx="5" dy="10"/>
<feGaussianBlur stdDeviation="7.5"/>
<feComposite in2="hardAlpha" operator="arithmetic" k2="-1" k3="1"/>
<feColorMatrix type="matrix" values="0 0 0 0 1 0 0 0 0 1 0 0 0 0 1 0 0 0 0.5 0"/>
<feBlend mode="normal" in2="shape" result="effect2_innerShadow_4578_3869"/>
</filter>
<linearGradient id="paint0_linear_4578_3869" x1="31.5742" y1="7.82918" x2="9.62065" y2="11.4051" gradientUnits="userSpaceOnUse">
<stop stop-color="#6BAB2B"/>
<stop offset="1" stop-color="#84D52C" stop-opacity="0"/>
</linearGradient>
<linearGradient id="paint1_linear_4578_3869" x1="31.5742" y1="7.82918" x2="9.62065" y2="11.4051" gradientUnits="userSpaceOnUse">
<stop stop-color="#6BAB2B"/>
<stop offset="1" stop-color="#84D52C" stop-opacity="0"/>
</linearGradient>
<linearGradient id="paint2_linear_4578_3869" x1="31.5742" y1="7.82918" x2="9.62065" y2="11.4051" gradientUnits="userSpaceOnUse">
<stop stop-color="#6BAB2B"/>
<stop offset="1" stop-color="#84D52C" stop-opacity="0"/>
</linearGradient>
</defs>
</svg>
