<svg width="11" height="8" viewBox="0 0 11 8" fill="none" xmlns="http://www.w3.org/2000/svg">
<g id="icon/cannabis">
<path d="M4.15477 7.45034C3.99742 7.45022 3.84164 7.41898 3.69642 7.3584C3.55119 7.29783 3.41939 7.20913 3.30859 7.0974L1.04447 4.83328C0.930944 4.72271 0.840513 4.59068 0.77843 4.44487C0.716347 4.29906 0.68385 4.14237 0.682825 3.9839C0.681801 3.82542 0.712269 3.66832 0.772461 3.52172C0.832653 3.37512 0.92137 3.24194 1.03346 3.12991C1.14555 3.01788 1.27878 2.92923 1.42541 2.86911C1.57204 2.809 1.72916 2.77861 1.88763 2.77972C2.0461 2.78083 2.20278 2.81341 2.34856 2.87556C2.49433 2.93772 2.62631 3.02822 2.73683 3.14181L4.15477 4.56063L7.97359 0.741809C8.19801 0.517389 8.50239 0.391312 8.81977 0.391312C9.13714 0.391312 9.44152 0.517389 9.66594 0.741809C9.89036 0.966229 10.0164 1.27061 10.0164 1.58799C10.0164 1.90536 9.89036 2.20974 9.66594 2.43416L4.99741 7.09916C4.77398 7.32299 4.47102 7.44925 4.15477 7.45034Z" fill="white"/>
</g>
</svg>
